<?xml version="1.0" encoding="UTF-8"?>
<svg id="_图层_1" data-name="图层 1" xmlns="http://www.w3.org/2000/svg" viewBox="0 0 256.09 181.16">
  <defs>
    <style>
      .cls-1 {
        fill: #343535;
      }
    </style>
  </defs>
  <path class="cls-1" d="M32.56,87.28c2.19,0,4.39-.81,6.09-2.43,3.5-3.32,3.6-8.81,.23-12.26L15.11,48.24c-3.37-3.45-8.93-3.55-12.42-.23-3.49,3.32-3.6,8.81-.23,12.26l23.78,24.36c1.72,1.77,4.02,2.65,6.33,2.65Z"/>
  <path class="cls-1" d="M59.83,58.08c1.52,3.08,4.65,4.87,7.9,4.87,1.29,0,2.6-.28,3.85-.88,4.36-2.1,6.17-7.29,4.04-11.59l-15.02-30.42c-2.13-4.3-7.39-6.09-11.74-3.99-4.36,2.1-6.18,7.29-4.05,11.59l15.03,30.42Z"/>
  <path class="cls-1" d="M98.74,43.41c.66,4.3,4.41,7.37,8.67,7.37,.44,0,.88-.03,1.33-.1,4.79-.72,8.1-5.14,7.37-9.87l-5.13-33.44c-.73-4.73-5.2-7.99-10-7.27-4.79,.72-8.1,5.14-7.37,9.87l5.13,33.44Z"/>
  <path class="cls-1" d="M147.34,50.69c.45,.07,.89,.1,1.33,.1,4.27,0,8.01-3.08,8.67-7.37l5.13-33.44c.73-4.73-2.57-9.15-7.37-9.87-4.8-.72-9.27,2.54-10,7.27l-5.13,33.44c-.73,4.74,2.57,9.15,7.37,9.87Z"/>
  <path class="cls-1" d="M184.52,62.07c1.24,.6,2.55,.88,3.84,.88,3.25,0,6.38-1.79,7.9-4.87l15.02-30.41c2.13-4.3,.31-9.49-4.05-11.59-4.36-2.1-9.62-.31-11.74,3.99l-15.02,30.42c-2.13,4.3-.31,9.49,4.04,11.59Z"/>
  <path class="cls-1" d="M253.4,48.01c-3.49-3.32-9.05-3.22-12.42,.23l-23.78,24.36c-3.36,3.45-3.26,8.94,.23,12.26,1.7,1.62,3.9,2.43,6.09,2.43,2.3,0,4.6-.89,6.33-2.65l23.78-24.36c3.37-3.45,3.26-8.94-.23-12.26Z"/>
  <path class="cls-1" d="M230.07,112.71c-.43-.54-10.75-13.28-28.06-25.83-23.41-16.97-48.98-25.95-73.97-25.95s-50.56,8.97-73.97,25.94c-16.89,12.24-26.96,24.48-28.06,25.84l-5.16,6.45c-.88,1.1-.88,2.66,0,3.76l5.17,6.45c.43,.53,10.66,13.22,28.06,25.84,23.4,16.97,48.98,25.95,73.97,25.95s50.56-8.97,73.97-25.95c17.31-12.55,27.63-25.3,28.06-25.84l5.16-6.45c.88-1.1,.88-2.66,0-3.76l-5.17-6.46Zm-10.33,8.61c-.38,.48-9.58,11.86-25.52,23.42-21.13,15.32-44.01,23.42-66.17,23.42s-45.04-8.1-66.17-23.42c-15.99-11.59-25.43-23.3-25.52-23.42l-.21-.27,.22-.27c.09-.12,9.53-11.82,25.52-23.42,13.81-10.02,28.37-16.94,42.99-20.54,3.9,2.39,6.5,6.64,6.5,11.51,0,7.48-6.15,13.55-13.73,13.55-3.99,0-7.57-1.68-10.08-4.35-.72,3.02-1.11,6.17-1.11,9.41,0,22.68,18.62,41.06,41.6,41.06s41.6-18.38,41.6-41.06c0-10.87-4.28-20.74-11.27-28.08,12.2,3.92,24.28,10.13,35.83,18.51,15.95,11.56,25.14,22.94,25.52,23.42l.21,.27-.21,.27Z"/>
</svg>